<svg xmlns="http://www.w3.org/2000/svg" width="48" height="48" viewBox="0 0 48 48">
    <g fill="none" fill-rule="evenodd">
        <g>
            <g>
                <g transform="translate(-68 -610) translate(68 562) translate(0 48)">
                    <circle cx="24" cy="24" r="24" fill="#171717"/>
                    <g fill="#FFF">
                        <path d="M17.359 18c-.854 1.275-1.759 2.52-3.137 2.54-1.379.031-1.82-.812-3.384-.812-1.574 0-2.057.792-3.364.843-1.347.052-2.365-1.357-3.23-2.602-1.758-2.54-3.106-7.22-1.295-10.368.894-1.563 2.499-2.55 4.237-2.582 1.317-.02 2.572.895 3.384.895.803 0 2.325-1.1 3.92-.936.668.031 2.54.268 3.743 2.037-.092.062-2.232 1.316-2.211 3.919.03 3.106 2.725 4.145 2.756 4.155-.03.072-.432 1.481-1.42 2.911M11.487 1.543C12.236.689 13.48.04 14.51 0c.133 1.203-.35 2.417-1.07 3.281-.71.874-1.882 1.553-3.034 1.46-.155-1.182.421-2.416 1.08-3.198z" transform="translate(13.2 13.2)"/>
                    </g>
                </g>
            </g>
        </g>
    </g>
</svg>
