<svg height="18" viewBox="0 0 21 18" width="21" xmlns="http://www.w3.org/2000/svg">
    <g fill="none" fill-rule="evenodd">
        <g fill="#000" fill-rule="nonzero">
            <path
                d="M35.285 64.716H20.037l4.667-5.606c.455-.547.38-1.358-.167-1.813-.547-.454-1.358-.38-1.813.167l-6.428 7.715c-.044.061-.082.125-.116.192 0 .065 0 .103-.09.168-.058.147-.089.304-.09.462.001.159.032.316.09.463 0 .065 0 .103.09.167.034.067.072.132.116.193l6.428 7.714c.245.294.608.464.99.463.3 0 .592-.104.823-.295.263-.218.428-.532.46-.872.031-.34-.074-.679-.293-.941l-4.667-5.606h15.248c.71 0 1.286-.575 1.286-1.286 0-.71-.576-1.285-1.286-1.285z"
                transform="translate(-16 -57)" />
        </g>
    </g>
</svg>
