<?xml version="1.0" encoding="UTF-8"?>
<svg width="25px" height="25px" viewBox="0 0 25 25" version="1.1" xmlns="http://www.w3.org/2000/svg" xmlns:xlink="http://www.w3.org/1999/xlink">
    <title>Home </title>
    <g id="FINAL" stroke="none" stroke-width="1" fill="none" fill-rule="evenodd">
        <g id="Artboard" transform="translate(-147.000000, -165.000000)" stroke="#71757B" stroke-width="1.5">
            <g id="FOOTER" transform="translate(116.000000, 125.000000)">
                <g id="HOME" transform="translate(32.000000, 41.000000)">
                    <path d="M8.30835443,21.5871126 L8.30835443,18.0603705 C8.30833388,17.1633351 9.04466229,16.4344513 9.95696203,16.4284309 L13.2987342,16.4284309 C14.2153871,16.4284309 14.958481,17.1590751 14.958481,18.0603705 L14.958481,21.5980652 C14.9582683,22.3596801 15.5765066,22.9821497 16.3508861,23 L18.5787342,23 C20.799618,23 22.6,21.2297813 22.6,19.0461059 L22.6,9.01351036 C22.5881405,8.15445096 22.1779181,7.34775157 21.486076,6.82298732 L13.8668354,0.788096327 C12.5320297,-0.262698776 10.6345526,-0.262698776 9.29974683,0.788096327 L1.71392405,6.83393993 C1.01945733,7.35657586 0.608553009,8.16461604 0.6,9.02446298 L0.6,19.0461059 C0.6,21.2297813 2.40038203,23 4.62126582,23 L6.84911393,23 C7.64272614,23 8.28607595,22.3674288 8.28607595,21.5871126" id="Home-"></path>
                </g>
            </g>
        </g>
    </g>
</svg>