<?xml version="1.0" encoding="UTF-8"?>
<svg width="20px" height="24px" viewBox="0 0 20 24" version="1.1" xmlns="http://www.w3.org/2000/svg" xmlns:xlink="http://www.w3.org/1999/xlink">
    <title>Profile Active</title>
    <g id="ROUGH" stroke="none" stroke-width="1" fill="none" fill-rule="evenodd">
        <g id="Profile" transform="translate(-315.000000, -758.000000)" fill="#251A65" fill-rule="nonzero">
            <g id="FOOTER" transform="translate(0.000000, 717.000000)">
                <path d="M322.018157,57.2597865 C323.74576,57.1205612 325.481308,57.1205612 327.208911,57.2597865 C328.149684,57.314627 329.085994,57.4323129 330.011918,57.6120997 C332.015549,58.0177936 333.323619,58.6797153 333.88422,59.747331 C334.30526,60.5805584 334.30526,61.5724665 333.88422,62.405694 C333.323619,63.4733096 332.067456,64.1779359 329.991155,64.5409252 C329.065957,64.7274894 328.129437,64.8487688 327.188148,64.9039146 C326.316101,65 325.444054,65 324.561626,65 L322.973255,65 C322.641047,64.9572954 322.319221,64.935943 322.007775,64.935943 C321.066455,64.8875238 320.129719,64.7697843 319.204768,64.5836299 C317.201137,64.1992882 315.893067,63.5160142 315.332466,62.4483986 C315.116053,62.0348341 315.001961,61.5728444 315,61.1032028 C314.995747,60.630699 315.106389,60.1645582 315.322084,59.747331 C315.872304,58.6797153 317.180374,57.9857652 319.204768,57.6120997 C320.133795,57.4297447 321.073725,57.3120398 322.018157,57.2597865 Z M324.603152,41 C328.083416,41 330.904727,43.901386 330.904727,47.480427 C330.904727,51.0594681 328.083416,53.960854 324.603152,53.960854 C321.122888,53.960854 318.301577,51.0594681 318.301577,47.480427 C318.301577,43.901386 321.122888,41 324.603152,41 Z" id="Profile-Active"></path>
            </g>
        </g>
    </g>
</svg>