<?xml version="1.0" encoding="UTF-8"?>
<svg width="22px" height="24px" viewBox="0 0 22 24" version="1.1" xmlns="http://www.w3.org/2000/svg" xmlns:xlink="http://www.w3.org/1999/xlink">
    <title>Home</title>
    <g id="FINAL" stroke="none" stroke-width="1" fill="none" fill-rule="evenodd">
        <g id="Home" transform="translate(-32.000000, -759.000000)" fill="#25196A" fill-rule="nonzero">
            <g id="FOOTER" transform="translate(0.000000, 718.000000)">
                <g id="HOME" transform="translate(32.000000, 41.000000)">
                    <path d="M7.68237512,21.7375544 L7.68237512,18.1970292 C7.68237512,17.2932351 8.42040902,16.5605654 9.33081998,16.5605654 L12.6588124,16.5605654 C13.0960072,16.5605654 13.5152955,16.732978 13.824439,17.0398746 C14.1335824,17.346771 14.3072573,17.763012 14.3072573,18.1970292 L14.3072573,21.7375544 C14.3044945,22.113299 14.4529184,22.4745965 14.7195872,22.7412595 C14.9862561,23.0079226 15.3491098,23.157908 15.7276154,23.157908 L17.998115,23.157908 C19.0585264,23.1606157 20.0764499,22.7443459 20.8272485,22.0009352 C21.5780471,21.2575245 22,20.2480826 22,19.1953749 L22,9.10899484 C22,8.25863844 21.6202909,7.45202794 20.9632422,6.90645878 L13.2393968,0.782585175 C11.8958173,-0.291139081 9.97076215,-0.256471261 8.667295,0.864922971 L1.1196984,6.90645878 C0.431594472,7.43594505 0.020323707,8.24494745 -2.30926389e-14,9.10899484 L-2.30926389e-14,19.1850826 C-2.30926389e-14,21.3791988 1.79170495,23.157908 4.00188501,23.157908 L6.22054665,23.157908 C7.00668351,23.157908 7.64557574,22.5282492 7.65127239,21.7478465 L7.68237512,21.7375544 Z" id="Home"></path>
                </g>
            </g>
        </g>
    </g>
</svg>