<?xml version="1.0" encoding="UTF-8"?>
<svg width="26px" height="24px" viewBox="0 0 26 24" version="1.1" xmlns="http://www.w3.org/2000/svg" xmlns:xlink="http://www.w3.org/1999/xlink">
    <title>JOB</title>
    <g id="FINAL" stroke="none" stroke-width="1" fill="none" fill-rule="evenodd" stroke-linecap="round" stroke-linejoin="round">
        <g id="Artboard" transform="translate(-216.000000, -166.000000)" stroke="#72757A" stroke-width="1.5">
            <g id="FOOTER" transform="translate(116.000000, 125.000000)">
                <g id="JOB" transform="translate(100.000000, 41.000000)">
                    <path d="M1.01568,11.9816842 C1.01568,11.9816842 1.19504842,15.4523205 1.23673263,16.5466293 C1.29231158,18.014361 1.65104842,19.6538273 2.24978526,20.7920682 C3.09483789,22.4055746 4.09020632,22.974695 5.41904842,22.9786888 C6.98157474,22.9826827 18.3437053,22.9826827 19.9062316,22.9786888 C21.2350737,22.974695 22.2304421,22.4055746 23.0754947,20.7920682 C23.6742316,19.6538273 24.0329684,18.014361 24.0898105,16.5466293 C24.1302316,15.4523205 24.3096,11.9816842 24.3096,11.9816842" id="Path"></path>
                    <path d="M8.20543579,4.20567158 L8.20543579,3.73704 C8.20543579,2.19598737 9.45343579,0.947987368 10.9945263,0.947987368 L14.256,0.947987368 C15.7957895,0.947987368 17.0450526,2.19598737 17.0450526,3.73704 L17.0463158,4.20567158" id="Path"></path>
                    <line x1="12.6252632" y1="18.5408842" x2="12.6252632" y2="16.9063579" id="Path"></line>
                    <path d="M0.947216842,8.07042947 L0.947216842,12.4498105 C3.36995368,14.0477053 6.27269053,15.1668632 9.45837474,15.6102316 C9.83984842,14.2194947 11.0941895,13.2001263 12.6188211,13.2001263 C14.1194526,13.2001263 15.3990316,14.2194947 15.7552421,15.6228632 C18.9535579,15.1794947 21.8676632,14.0603368 24.3030316,12.4498105 L24.3030316,8.07042947 C24.3030316,5.93064 22.5813474,4.20769263 20.4415579,4.20769263 L4.82132211,4.20769263 C2.68153263,4.20769263 0.947216842,5.93064 0.947216842,8.07042947 Z" id="Path"></path>
                </g>
            </g>
        </g>
    </g>
</svg>