<svg xmlns="http://www.w3.org/2000/svg" width="27" height="27" viewBox="0 0 27 27">
    <g fill="none" fill-rule="evenodd">
        <g>
            <g>
                <g transform="translate(-250 -756) translate(0 718) translate(250 39)">
                    <path fill="#251A65" fill-rule="nonzero" d="M16.979 3c-.05.316-.076.631-.076.947 0 2.84 2.298 5.136 5.125 5.136.316 0 .619-.036.934-.087v10.186c0 4.28-2.524 6.818-6.816 6.818H6.818C2.525 26 0 23.463 0 19.182v-9.34C0 5.55 2.525 3 6.818 3h10.16zm.253 7.675c-.342-.038-.681.114-.884.391l-3.054 3.952-3.498-2.752c-.215-.164-.467-.229-.72-.202-.25.038-.478.175-.63.377L4.71 17.302l-.077.114c-.215.403-.114.92.265 1.2.177.113.366.189.58.189.292.012.569-.14.745-.38l3.169-4.078 3.598 2.703.113.074c.404.215.91.115 1.2-.265l3.648-4.707-.05.025c.201-.277.24-.63.1-.946-.137-.316-.442-.53-.769-.556z"/>
                    <circle cx="21.595" cy="4.64" r="4.5" fill="#FF6B66" stroke="#FFF"/>
                </g>
            </g>
        </g>
    </g>
</svg>
