<?xml version="1.0" encoding="UTF-8"?>
<svg width="20px" height="26px" viewBox="0 0 20 26" version="1.1" xmlns="http://www.w3.org/2000/svg" xmlns:xlink="http://www.w3.org/1999/xlink">
    <title>Profile</title>
    <g id="FINAL" stroke="none" stroke-width="1" fill="none" fill-rule="evenodd">
        <g id="Artboard" transform="translate(-439.000000, -165.000000)" stroke="#72757A" stroke-width="1.5">
            <g id="FOOTER" transform="translate(116.000000, 125.000000)">
                <g id="PROFILE" transform="translate(324.000000, 41.000000)">
                    <path d="M11.7199279,16.5377575 C12.6652829,16.6040129 13.6048638,16.7361414 14.5318273,16.9331808 C15.8169532,17.1967964 17.3656945,17.7240276 17.9148936,18.8773457 C18.2668469,19.6174991 18.2668469,20.4767803 17.9148936,21.2169337 C17.3656945,22.3702518 15.8169532,22.897483 14.5318273,23.1501145 C13.6060793,23.3560919 12.6661129,23.4919463 11.7199279,23.5565219 C10.295241,23.6772974 8.86390301,23.699318 7.43617506,23.6224258 C7.10665561,23.6224258 6.78812014,23.6224258 6.45860069,23.5565219 C5.51595763,23.492742 4.57958208,23.3568757 3.65768534,23.1501145 C2.3615755,22.897483 0.823818049,22.3702518 0.263634979,21.2169337 C0.08951791,20.849629 -0.000537537563,20.4481318 -1.89353178e-05,20.0416477 C-0.0015211267,19.6385797 0.0886238081,19.2404396 0.263634979,18.8773457 C0.812834068,17.7789474 2.3615755,17.1967964 3.64670136,16.9331808 C4.57353294,16.7353945 5.51316647,16.6032586 6.45860069,16.5377575 C8.20900633,16.3839992 9.96952229,16.3839992 11.7199279,16.5377575 Z M9.09475631,0.6 C12.2613574,0.6 14.8283948,3.16703738 14.8283948,6.33363847 C14.8283948,9.50023956 12.2613574,12.0672769 9.09475631,12.0672769 C5.92815522,12.0672769 3.36111784,9.50023956 3.36111784,6.33363847 C3.36111784,3.16703738 5.92815522,0.6 9.09475631,0.6 Z" id="Profile"></path>
                </g>
            </g>
        </g>
    </g>
</svg>