<?xml version="1.0" encoding="UTF-8"?>
<svg width="24px" height="24px" viewBox="0 0 24 24" version="1.1" xmlns="http://www.w3.org/2000/svg" xmlns:xlink="http://www.w3.org/1999/xlink">
    <title>Job_active</title>
    <g id="FINAL" stroke="none" stroke-width="1" fill="none" fill-rule="evenodd">
        <g id="Favors" transform="translate(-101.000000, -759.000000)" fill="#251A65">
            <g id="FOOTER" transform="translate(0.000000, 718.000000)">
                <path d="M111.44528,42.822776 C110.6408,42.822776 109.956476,43.38176 109.76438,44.13518 L116.22356,44.13518 C116.03156,43.38176 115.3472,42.822776 114.54272,42.822776 L111.44528,42.822776 Z M118.04852,44.135168 L120.42572,44.135168 C122.94692,44.135168 125,46.213136 125,48.76502 C125,48.76502 124.928,49.84532 124.904,51.34976 C124.9016,51.4688 124.84388,51.58544 124.74908,51.656 C124.17164,52.08248 123.64328,52.43492 123.59528,52.45916 C121.60232,53.79584 119.28632,54.7364 116.81912,55.20428 C116.6582,55.23584 116.4998,55.15208 116.41808,55.00868 C115.72652,53.81048 114.43472,53.03036 112.994,53.03036 C111.56288,53.03036 110.259032,53.80196 109.547072,55.00136 C109.464236,55.14236 109.308152,55.22372 109.14848,55.19336 C106.701656,54.72428 104.385692,53.78492 102.404708,52.47128 L101.252132,51.66932 C101.156084,51.6086 101.096048,51.49916 101.096048,51.37772 C101.060036,50.75792 101,48.76502 101,48.76502 C101,46.213136 103.053032,44.135168 105.574292,44.135168 L107.939468,44.135168 C108.167588,42.37316 109.64432,41 111.44528,41 L114.54272,41 C116.34368,41 117.8204,42.37316 118.04852,44.135168 Z M124.59176,53.97824 L124.54376,54.0026 C122.11856,55.63088 119.20112,56.71244 116.13956,57.16208 C115.70732,57.2228 115.27508,56.94332 115.15508,56.50592 C114.89096,55.50944 114.03848,54.85316 113.018,54.85316 L113.006,54.85316 L112.982,54.85316 C111.96152,54.85316 111.10904,55.50944 110.84492,56.50592 C110.72492,56.94332 110.292644,57.2228 109.860428,57.16208 C106.798904,56.71244 103.88144,55.63088 101.456228,54.0026 C101.444228,53.99048 101.324168,53.91752 101.22812,53.97824 C101.12006,54.03908 101.12006,54.18488 101.12006,54.18488 L101.204108,60.38228 C101.204108,62.9342 103.245128,65 105.766388,65 L120.2216,65 C122.74292,65 124.78388,62.9342 124.78388,60.38228 L124.88,54.18488 C124.88,54.18488 124.88,54.03908 124.77188,53.97824 C124.71188,53.94188 124.63988,53.954 124.59176,53.97824 Z M113.89448,59.06996 C113.89448,59.58032 113.49824,59.98124 112.994,59.98124 C112.50176,59.98124 112.09352,59.58032 112.09352,59.06996 L112.09352,57.50228 C112.09352,57.00404 112.50176,56.59088 112.994,56.59088 C113.49824,56.59088 113.89448,57.00404 113.89448,57.50228 L113.89448,59.06996 Z" id="Job_active"></path>
            </g>
        </g>
    </g>
</svg>