<svg id="chat" xmlns="http://www.w3.org/2000/svg" width="70" height="70" viewBox="0 0 70 70">
  <path id="Path_28" data-name="Path 28" d="M0,0H70V70H0Z" fill="none"/>
  <path id="Path_29" data-name="Path 29" d="M28.4,3H41.6A26.639,26.639,0,0,1,68,29.872,26.639,26.639,0,0,1,41.6,56.744V68.5C25.1,61.782,2,51.705,2,29.872A26.639,26.639,0,0,1,28.4,3ZM35,50.026h6.6A19.979,19.979,0,0,0,61.4,29.872,19.979,19.979,0,0,0,41.6,9.718H28.4A19.979,19.979,0,0,0,8.6,29.872C8.6,42,16.725,49.911,35,58.356Z" transform="translate(0 0)" fill="#182c49"/>
</svg>
