<svg id="Like" xmlns="http://www.w3.org/2000/svg" width="80" height="80" viewBox="0 0 80 80">
  <path id="Path_94" data-name="Path 94" d="M0,0H80V80H0Z" fill="none"/>
  <path id="Path_95" data-name="Path 95" d="M4.333,27.293h10v40h-10A3.333,3.333,0,0,1,1,63.96V30.627a3.333,3.333,0,0,1,3.333-3.333Zm17.643-4.31L43.31,1.65a1.667,1.667,0,0,1,2.18-.157l2.843,2.133A5,5,0,0,1,50.177,8.86l-3.843,15.1H67.667a6.667,6.667,0,0,1,6.667,6.667V37.64a6.667,6.667,0,0,1-.5,2.54L63.517,65.23a3.333,3.333,0,0,1-3.083,2.063h-36.1A3.333,3.333,0,0,1,21,63.96V25.34a3.333,3.333,0,0,1,.976-2.356Z" transform="translate(2.333 2.707)" fill="#23C8D2"/>
</svg>
