<svg id="Dislike" xmlns="http://www.w3.org/2000/svg" width="80" height="80" viewBox="0 0 80 80">
  <path id="Path_96" data-name="Path 96" d="M0,0H80V80H0Z" fill="none"/>
  <path id="Path_97" data-name="Path 97" d="M70.97,42.961h-10V3h10A3.331,3.331,0,0,1,74.3,6.33v33.3A3.331,3.331,0,0,1,70.97,42.961ZM53.335,47.267,32.01,68.579a1.667,1.667,0,0,1-2.179.157L26.989,66.6a4.994,4.994,0,0,1-1.843-5.228l3.842-15.085H7.664A6.662,6.662,0,0,1,1,39.631V32.624a6.657,6.657,0,0,1,.5-2.538L11.815,5.065A3.332,3.332,0,0,1,14.894,3H50.979a3.331,3.331,0,0,1,3.332,3.33V44.912a3.329,3.329,0,0,1-.976,2.354Z" transform="translate(2.349 7.047)" fill="#23C8D2"/>
</svg>
