<svg height="22" viewBox="0 0 22 22" width="22" xmlns="http://www.w3.org/2000/svg">
    <g fill="none" fill-rule="evenodd">
        <g fill="#000" fill-rule="nonzero">
            <g>
                <g>
                    <path
                        d="M14.34 21.66h-10c-2.21 0-4-1.79-4-4v-10c0-2.21 1.79-4 4-4h3c.552 0 1 .448 1 1s-.448 1-1 1h-3c-1.105 0-2 .895-2 2v10c0 1.105.895 2 2 2h10c1.105 0 2-.895 2-2v-2c0-.552.448-1 1-1s1 .448 1 1v2c0 2.21-1.79 4-4 4zM17.33 8.5c-.552 0-1-.448-1-1-.063-1.005-.865-1.807-1.87-1.87-.552 0-1-.448-1-1s.448-1 1-1c.71.025 1.4.24 2 .62.485.305.895.715 1.2 1.2.38.6.595 1.29.62 2 0 .552-.448 1-1 1l.05.05z"
                        transform="translate(-26 -610) translate(0 462) translate(26 148)" />
                    <path
                        d="M12.17 13.66H9.34c-.552 0-1-.448-1-1V9.83c.001-.267.11-.523.3-.71l5.66-5.66c.39-.388 1.02-.388 1.41 0l1 1c.15.145.252.334.29.54.227.025.439.128.6.29l1 1c.388.39.388 1.02 0 1.41l-5.66 5.66c-.201.206-.482.316-.77.3zm-1.83-2h1.42L16.42 7l-.26-.27c-.162-.161-.265-.373-.29-.6-.227-.025-.439-.128-.6-.29L15 5.58l-4.66 4.66v1.42z"
                        transform="translate(-26 -610) translate(0 462) translate(26 148)" />
                    <path
                        d="M17.83 8c-.264-.004-.515-.112-.7-.3l-1-1c-.162-.161-.265-.373-.29-.6-.227-.025-.439-.128-.6-.29l-1-1c-.19-.187-.299-.443-.3-.71.004-.264.112-.515.3-.7L17.07.58c.39-.388 1.02-.388 1.41 0L21.3 3.4c.388.39.388 1.02 0 1.41L18.54 7.7c-.185.188-.436.296-.7.3h-.01zM17 5c.227.025.439.128.6.29l.26.26 1.41-1.41-1.44-1.38-1.41 1.41.26.26c.168.149.28.35.32.57z"
                        transform="translate(-26 -610) translate(0 462) translate(26 148)" />
                </g>
            </g>
        </g>
    </g>
</svg>
