<svg xmlns:xlink="http://www.w3.org/1999/xlink" height="17" viewBox="0 0 20 17" width="20"
    xmlns="http://www.w3.org/2000/svg">
    <defs>
        <path
            d="M16.667.5H3.333C1.917.5.833 1.583.833 3v10c0 1.417 1.084 2.5 2.5 2.5h13.334c1.416 0 2.5-1.083 2.5-2.5V3c0-1.417-1.084-2.5-2.5-2.5zM3.333 2.167h13.334c.333 0 .583.166.75.5L10 7.833 2.583 2.667c.167-.334.417-.5.75-.5zm13.334 11.666H3.333c-.5 0-.833-.333-.833-.833V4.583l7 4.917c.167.083.333.167.5.167.167 0 .333-.084.5-.167l7-4.917V13c0 .5-.333.833-.833.833z"
            id="xo0fsudena" />
    </defs>
    <g fill="none" fill-rule="evenodd">
        <g>
            <g>
                <g>
                    <g>
                        <path d="M2 2H18V14H2z" fill="#32C5FF" opacity=".2"
                            transform="translate(-36 -240) translate(20 218) translate(16 19.333) translate(0 3)" />
                        <g transform="translate(-36 -240) translate(20 218) translate(16 19.333) translate(0 3)">
                            <use fill="#32C5FF" fill-rule="nonzero" xlink:href="#xo0fsudena" />
                        </g>
                    </g>
                </g>
            </g>
        </g>
    </g>
</svg>
