<svg height="24" viewBox="0 0 26 24" width="26" xmlns="http://www.w3.org/2000/svg">
    <g fill="none" fill-rule="evenodd" stroke-linecap="round" stroke-linejoin="round">
        <g stroke="#72757A" stroke-width="1.5">
            <g>
                <g>
                    <path
                        d="M1.016 11.982s.179 3.47.22 4.565c.056 1.467.415 3.107 1.014 4.245.845 1.614 1.84 2.183 3.169 2.187 1.563.004 12.925.004 14.487 0 1.33-.004 2.324-.573 3.17-2.187.598-1.138.957-2.778 1.014-4.245.04-1.095.22-4.565.22-4.565M8.205 4.206v-.469c0-1.541 1.248-2.789 2.79-2.789h3.261c1.54 0 2.79 1.248 2.79 2.789v.469M12.625 18.541L12.625 16.906"
                        transform="translate(-100 -759) translate(0 718) translate(100 41)" />
                    <path
                        d="M.947 8.07v4.38c2.423 1.598 5.326 2.717 8.511 3.16.382-1.39 1.636-2.41 3.16-2.41 1.501 0 2.781 1.02 3.137 2.423 3.199-.444 6.113-1.563 8.548-3.173V8.07c0-2.14-1.722-3.862-3.861-3.862H4.822C2.681 4.208.946 5.93.946 8.07z"
                        transform="translate(-100 -759) translate(0 718) translate(100 41)" />
                </g>
            </g>
        </g>
    </g>
</svg>
