<svg id="Feeling" xmlns="http://www.w3.org/2000/svg" width="75" height="75" viewBox="0 0 75 75">
  <path id="Path_45" data-name="Path 45" d="M0,0H75V75H0Z" fill="none"/>
  <path id="Path_46" data-name="Path 46" d="M37.5.5,51.168,21.209l23.245,7.064-14.8,19.862.7,25.073L37.5,64.774,14.689,73.208l.7-25.073L.587,28.273l23.245-7.064Zm0,11.87-9.632,14.6L11.487,31.94,21.917,45.934,21.422,63.6,37.5,57.66,53.574,63.6l-.492-17.668L63.51,31.94,47.132,26.967,37.5,12.37ZM31.031,39.018a6.473,6.473,0,1,0,12.937,0h6.469A13.173,13.173,0,0,1,37.5,52.415a13.173,13.173,0,0,1-12.937-13.4Z" fill="#001738"/>
</svg>
