<svg height="24" viewBox="0 0 23 24" width="23" xmlns="http://www.w3.org/2000/svg">
    <g fill="none" fill-rule="evenodd">
        <g fill="#25196A" fill-rule="nonzero">
            <g>
                <g>
                    <path
                        d="M7.962 22.528v-3.67c0-.936.765-1.695 1.708-1.695h3.45c.452 0 .887.178 1.207.497.32.318.5.749.5 1.199v3.669c-.002.39.151.764.428 1.04.276.277.652.432 1.045.432h2.353c1.099.003 2.154-.429 2.932-1.199s1.215-1.817 1.215-2.908V9.44c0-.881-.394-1.717-1.074-2.282L13.72.81C12.328-.302 10.333-.266 8.982.896L1.16 7.158C.447 7.706.021 8.545 0 9.44v10.443C0 22.157 1.857 24 4.147 24h2.3c.814 0 1.477-.653 1.483-1.461l.032-.011z"
                        transform="translate(-32 -759) translate(0 718) translate(32 41)" />
                </g>
            </g>
        </g>
    </g>
</svg>
