<svg height="20" viewBox="0 0 16 20" width="16" xmlns="http://www.w3.org/2000/svg">
    <g fill="none" fill-rule="evenodd">
        <g fill="#FF6B66" fill-rule="nonzero">
            <g>
                <g>
                    <g>
                        <path
                            d="M14 5c.552 0 1 .448 1 1v11c0 1.657-1.343 3-3 3H4c-1.657 0-3-1.343-3-3V6c0-.552.448-1 1-1s1 .448 1 1v11c0 .552.448 1 1 1h8c.552 0 1-.448 1-1V6c0-.552.448-1 1-1zM6 6c.552 0 1 .448 1 1v8c0 .552-.448 1-1 1s-1-.448-1-1V7c0-.552.448-1 1-1zm4 0c.552 0 1 .448 1 1v8c0 .552-.448 1-1 1s-1-.448-1-1V7c0-.552.448-1 1-1zm1-6c.552 0 1 .448 1 1v1h3c.552 0 1 .448 1 1s-.448 1-1 1H1c-.552 0-1-.448-1-1s.448-1 1-1h3V1c0-.552.448-1 1-1h6z"
                            transform="translate(-27 -665) translate(0 462) translate(27 202) translate(0 1)" />
                    </g>
                </g>
            </g>
        </g>
    </g>
</svg>
