<svg height="123" viewBox="0 0 140 123" width="140" xmlns="http://www.w3.org/2000/svg">
    <defs>
        <linearGradient id="wkf6qjl3wa" x1="86.083%" x2="14.02%" y1="13.642%" y2="86.207%">
            <stop offset="0%" stop-color="#B7E2F9" />
            <stop offset="79.8%" stop-color="#C0ECFF" stop-opacity="0" />
        </linearGradient>
        <linearGradient id="7kxsgw9y7b" x1="-4.418%" x2="63.826%" y1="-28.917%" y2="70.098%">
            <stop offset="0%" stop-color="#B7E2F9" />
            <stop offset="79.8%" stop-color="#C0ECFF" stop-opacity="0" />
        </linearGradient>
    </defs>
    <g fill="none" fill-rule="evenodd">
        <g fill-rule="nonzero">
            <g>
                <g>
                    <g>
                        <path
                            d="M51.318 64.028c-8.738-.17-17.433-3.25-24.508-9.281-.81-.684-1.577-1.411-2.344-2.181L11.508 39.563c-.426-.427-.81-.812-1.193-1.155l-8.482-8.511c-2.217-2.224-2.217-5.817 0-8.041L22.292 1.369c1.705-1.711 4.518-1.711 6.223 0L52.17 25.107l25.617 25.705c1.023 1.027.98 2.695-.128 3.678-7.075 6.202-15.813 9.41-24.679 9.624-.554-.043-1.108-.043-1.662-.086z"
                            fill="#251A65"
                            transform="translate(-117 -124) translate(117 124) translate(17)" />
                        <path
                            d="M35.846 63.772L24.72 52.608 74.08 3.08c2.685-2.695 7.032-2.695 9.675 0L101.614 21c2.684 2.695 2.684 7.058 0 9.71L68.665 63.772c-9.08 9.11-23.741 9.11-32.82 0z"
                            fill="#09A5FF"
                            transform="translate(-117 -124) translate(117 124) translate(17)" />
                        <path
                            d="M26.81 54.747c-.81-.684-1.577-1.411-2.344-2.181L11.508 39.563C23.656 51.753 50.04 27.074 52 25.193l.128-.13-11.21 27.973-13.938 1.711h-.17z"
                            fill="#09A5FF"
                            transform="translate(-117 -124) translate(117 124) translate(17)" />
                    </g>
                    <g fill="url(#wkf6qjl3wa)" opacity=".5"
                        transform="translate(-117 -124) translate(117 124) translate(17) translate(40.918 7.699)">
                        <path
                            d="M15.6 55.945L.298 40.59l.895-.898c.768-.77 1.237-1.84 1.237-2.952 0-1.112-.427-2.181-1.237-2.95l-.895-.899L32.905.171l.895.898c1.577 1.583 4.348 1.583 5.882 0l.895-.898 15.302 15.355-.895.898c-.768.77-1.236 1.84-1.236 2.951 0 1.112.426 2.182 1.236 2.952l.895.898-32.607 32.72-.895-.899c-1.577-1.582-4.347-1.582-5.882 0l-.895.899zm3.836-4.705c1.364 0 2.685.385 3.75 1.155l29.198-29.299c-.725-1.112-1.151-2.395-1.151-3.763 0-1.37.383-2.695 1.15-3.764L40.535 3.679c-2.216 1.496-5.327 1.496-7.544 0L3.836 32.933c.725 1.112 1.15 2.395 1.15 3.764 0 1.368-.383 2.694-1.15 3.763l11.85 11.89c1.107-.726 2.386-1.111 3.75-1.111z" />
                    </g>
                    <g fill="url(#7kxsgw9y7b)" opacity=".5"
                        transform="translate(-117 -124) translate(117 124) translate(17) translate(8.95 8.127)">
                        <path
                            d="M38.531 53.635l-.895-.898c-1.534-1.54-4.006-1.54-5.54 0l-.896.898L.043 22.369l.895-.898c1.534-1.54 1.534-4.02 0-5.56l-.895-.898L14.705.299l.895.899c1.534 1.54 4.007 1.54 5.541 0l.895-.899 31.157 31.266-.895.898c-1.534 1.54-1.534 4.02 0 5.56l.895.899-14.662 14.713zM3.581 22.284l27.704 27.8c2.174-1.453 4.987-1.453 7.16 0l11.21-11.248c-1.448-2.181-1.448-5.004 0-7.185L21.952 3.849c-2.174 1.455-4.987 1.455-7.16 0L3.58 15.1c1.449 2.18 1.449 5.046 0 7.185z" />
                    </g>
                </g>
                <path
                    d="M6.911 113.968v-9.814h3.564c3.1 0 5.687-1.01 7.759-3.031s3.107-4.53 3.107-7.524c0-2.995-1.043-5.51-3.129-7.546C16.155 84.018 13.576 83 10.475 83H0v30.968h6.911zm3.798-16.344H7.256v-8.172h3.453c1.237 0 2.252.388 3.043 1.164.791.776 1.187 1.75 1.187 2.922 0 1.142-.403 2.109-1.209 2.9-.805.79-1.812 1.186-3.02 1.186zm23.115 16.774c2.452 0 4.39-.888 5.816-2.664v2.183h6.458V92.083H39.64v2.183c-1.425-1.776-3.364-2.664-5.816-2.664-2.766 0-5.11 1.121-7.035 3.363-1.924 2.241-2.887 4.92-2.887 8.035s.963 5.794 2.887 8.035c1.925 2.242 4.27 3.363 7.035 3.363zm1.39-6.022c-1.465 0-2.656-.505-3.574-1.517-.89-1.012-1.335-2.298-1.335-3.859 0-1.56.452-2.847 1.356-3.859.904-1.012 2.088-1.517 3.552-1.517s2.648.505 3.553 1.517c.904 1.012 1.356 2.298 1.356 3.859 0 1.56-.452 2.847-1.356 3.859-.905 1.012-2.089 1.517-3.553 1.517zM60.52 123l13.32-30.968h-7.11l-5.268 13.497-5.31-13.497h-7.068l8.91 20.573L53.54 123h6.981zm28.697-8.602l9.38-21.936h-7.196L86.177 105.8l-5.183-13.337h-7.153l9.38 21.936h5.997zm21.971 0c3.125 0 5.792-1.092 8-3.275 2.207-2.213 3.311-4.92 3.311-8.123 0-3.202-1.104-5.903-3.312-8.1-2.207-2.199-4.874-3.298-7.999-3.298s-5.792 1.1-8 3.297c-2.207 2.198-3.311 4.899-3.311 8.101 0 3.202 1.104 5.903 3.312 8.1 2.207 2.199 4.874 3.298 7.999 3.298zm0-6.022c-1.415 0-2.594-.473-3.538-1.419-.914-.946-1.37-2.194-1.37-3.742s.464-2.796 1.392-3.742c.93-.946 2.101-1.42 3.516-1.42s2.587.474 3.516 1.42c.928.946 1.393 2.194 1.393 3.742s-.465 2.796-1.393 3.742c-.929.946-2.1 1.42-3.516 1.42zm21.618 5.592v-10.274c0-1.59.378-2.869 1.134-3.837.757-.968 1.82-1.452 3.19-1.452.914 0 1.87.173 2.869.52v-6.633c-.657-.173-1.356-.26-2.098-.26-1.17 0-2.226.34-3.168 1.019-.942.68-1.585 1.51-1.927 2.493v-3.252h-6.466v21.676h6.466z"
                    fill="#251A65" transform="translate(-117 -124) translate(117 124)" />
            </g>
        </g>
    </g>
</svg>
