<svg id="NearBy" xmlns="http://www.w3.org/2000/svg" width="60.135" height="60.135" viewBox="0 0 60.135 60.135">
  <path id="Path_43" data-name="Path 43" d="M20.027,47.1l3.007-6.014V25.627a12.027,12.027,0,1,0-6.014,0V41.088ZM14.014,14.027a6.014,6.014,0,1,1,6.014,6.014A6.02,6.02,0,0,1,14.014,14.027Z" transform="translate(10.041 -2)" fill="#000"/>
  <path id="Path_44" data-name="Path 44" d="M44.9,10.565l-1.6,5.8c7.791,2.153,12.827,6.293,12.827,10.551,0,5.689-9.877,12.027-24.054,12.027S8.014,32.6,8.014,26.913c0-4.258,5.036-8.4,12.83-10.554l-1.6-5.8C8.606,13.5,2,19.766,2,26.913,2,37.028,15.209,44.953,32.068,44.953s30.068-7.926,30.068-18.041C62.135,19.766,55.529,13.5,44.9,10.565Z" transform="translate(-2 15.182)" fill="#000"/>
</svg>
