<svg height="20" viewBox="0 0 20 20" width="20" xmlns="http://www.w3.org/2000/svg">
    <g fill="none" fill-rule="evenodd">
        <g fill="#FF6B66" fill-rule="nonzero">
            <g>
                <path
                    d="M349 152c-5.523 0-10 4.477-10 10s4.477 10 10 10 10-4.477 10-10c0-2.652-1.054-5.196-2.929-7.071-1.875-1.875-4.419-2.929-7.071-2.929zm1 14c0 .552-.448 1-1 1s-1-.448-1-1v-5c0-.552.448-1 1-1s1 .448 1 1v5zm-1-7c-.552 0-1-.448-1-1s.448-1 1-1 1 .448 1 1-.448 1-1 1z"
                    transform="translate(-339 -405) translate(0 253) matrix(1 0 0 -1 0 324)" />
            </g>
        </g>
    </g>
</svg>
