<svg height="11" viewBox="0 0 10 11" width="10" xmlns="http://www.w3.org/2000/svg">
    <g fill="none" fill-rule="evenodd">
        <g fill="#B7B7B7" fill-rule="nonzero">
            <g>
                <path
                    d="M338.765 14.428l-6.943-7.596h4.673c.463 0 .838-.41.838-.916S336.958 5 336.495 5h-6.658c-.462 0-.837.41-.837.916v7.33c0 .506.375.916.837.916h-.041c.462 0 .837-.41.837-.916V8.161l6.917 7.568c.158.173.372.271.595.271.223 0 .437-.098.594-.271.162-.168.256-.4.26-.645.006-.244-.08-.48-.234-.656z"
                    transform="translate(-345 -139) translate(16 134)" />
            </g>
        </g>
    </g>
</svg>
