<svg height="26" viewBox="0 0 20 26" width="20" xmlns="http://www.w3.org/2000/svg">
    <g fill="none" fill-rule="evenodd">
        <g stroke="#72757A" stroke-width="1.5">
            <g>
                <g transform="translate(-323 -758) translate(0 718) translate(324 41)">
                    <circle cx="9.095" cy="6.334" r="5.734" />
                    <path
                        d="M0 20.042c-.002-.403.089-.802.264-1.165.549-1.098 2.098-1.68 3.383-1.944.927-.198 1.866-.33 2.812-.395 1.75-.154 3.51-.154 5.26 0 .946.066 1.886.198 2.813.395 1.285.264 2.834.791 3.383 1.944.352.74.352 1.6 0 2.34-.55 1.153-2.098 1.68-3.383 1.933-.926.206-1.866.342-2.812.407-1.425.12-2.856.142-4.284.065-.33 0-.648 0-.977-.065-.943-.064-1.88-.2-2.801-.407-1.296-.253-2.834-.78-3.394-1.933-.174-.367-.265-.769-.264-1.175z" />
                </g>
            </g>
        </g>
    </g>
</svg>
