<svg height="17" viewBox="0 0 18 17" width="18" xmlns="http://www.w3.org/2000/svg">
    <g fill="none" fill-rule="evenodd">
        <g fill="#676363" fill-rule="nonzero">
            <g>
                <path
                    d="M10.9 2.06c4.432.544 7.584 4.578 7.04 9.01-.544 4.432-4.578 7.584-9.01 7.04-.493-.06-.843-.509-.782-1.001.06-.493.508-.843 1-.782 3.448.423 6.585-2.029 7.009-5.476.423-3.447-2.029-6.584-5.476-7.008-3.06-.375-5.876 1.514-6.766 4.355l.332-.192c.43-.248.98-.1 1.227.329.248.43.101.979-.329 1.227l-2.2 1.27c-.43.248-.98.101-1.227-.328L.448 8.303c-.249-.43-.102-.979.328-1.227.43-.248.98-.1 1.227.329l.18.312C3.307 4.032 6.945 1.575 10.9 2.06zM9.017 5.593c.496 0 .898.402.898.899v3.22l2.432 2.433c.35.35.35.92 0 1.27-.35.351-.92.351-1.27 0L8.38 10.72l-.02-.022-.04-.044.06.066c-.033-.033-.063-.068-.09-.105-.015-.021-.03-.043-.043-.065l-.017-.028c-.072-.13-.113-.278-.113-.437V6.492c0-.497.403-.899.899-.899z"
                    transform="translate(-16 -183) translate(16 181)" />
            </g>
        </g>
    </g>
</svg>
