<svg height="20" viewBox="0 0 20 20" width="20" xmlns="http://www.w3.org/2000/svg">
    <g fill="none" fill-rule="evenodd">
        <g>
            <g>
                <g transform="translate(-31 -599) translate(0 574) translate(31 25)">
                    <path
                        d="M15.62 15.654c.387-.384 1.007-.384 1.393 0l2.555 2.062h.044c.517.523.517 1.37 0 1.892-.516.523-1.354.523-1.871 0l-2.12-2.43-.08-.09c-.15-.19-.233-.426-.233-.672 0-.286.112-.56.313-.762zM8.579 0c2.275 0 4.456.913 6.065 2.54 1.609 1.625 2.512 3.83 2.512 6.13 0 4.788-3.84 8.67-8.577 8.67C3.84 17.34 0 13.458 0 8.67S3.84 0 8.578 0z"
                        fill="#FF6B66" fill-rule="nonzero" />
                    <circle cx="9" cy="9" fill="#FFF" r="2" />
                </g>
            </g>
        </g>
    </g>
</svg>
