<svg height="15" viewBox="0 0 15 15" width="15" xmlns="http://www.w3.org/2000/svg">
    <g fill="none" fill-rule="evenodd">
        <g fill="#676363" fill-rule="nonzero">
            <g>
                <path
                    d="M14.754 16.57l-2.833-2.823c.914-1.165 1.41-2.602 1.408-4.082C13.329 5.984 10.345 3 6.665 3 2.984 3 0 5.984 0 9.665c0 3.68 2.984 6.664 6.665 6.664 1.48.002 2.917-.494 4.082-1.408l2.824 2.833c.156.157.369.246.591.246.222 0 .435-.089.592-.246.157-.157.246-.37.246-.592 0-.222-.089-.435-.246-.591zM1.666 9.666c0-2.761 2.238-4.999 4.999-4.999 2.76 0 4.998 2.238 4.998 4.999 0 2.76-2.238 4.998-4.998 4.998-2.761 0-4.999-2.238-4.999-4.998z"
                    transform="translate(-16 -137) translate(16 134)" />
            </g>
        </g>
    </g>
</svg>
