<svg height="20" viewBox="0 0 18 20" width="18" xmlns="http://www.w3.org/2000/svg">
    <g fill="none" fill-rule="evenodd">
        <g fill="#FF6B66" fill-rule="nonzero">
            <g>
                <path
                    d="M45.191 26C48.28 26 50 27.78 50 30.83v10.33c0 3.1-1.72 4.84-4.809 4.84H36.81C33.77 46 32 44.26 32 41.16V30.83c0-3.05 1.77-4.83 4.81-4.83h8.381zM37.08 39.74c-.3-.03-.59.11-.75.37-.16.25-.16.58 0 .84.16.25.45.4.75.36h7.84c.399-.04.7-.381.7-.78 0-.41-.301-.75-.7-.79h-7.84zm7.84-4.561h-7.84c-.431 0-.78.351-.78.781 0 .43.349.78.78.78h7.84c.43 0 .78-.35.78-.78 0-.43-.35-.781-.78-.781zm-4.851-4.529H37.08v.01c-.431 0-.78.35-.78.78 0 .43.349.78.78.78h2.989c.431 0 .781-.35.781-.791 0-.429-.35-.779-.781-.779z"
                    transform="translate(-32 -526) translate(0 500)" />
            </g>
        </g>
    </g>
</svg>
