<svg height="22" viewBox="0 0 19 22" width="19" xmlns="http://www.w3.org/2000/svg">
    <g fill="none" fill-rule="evenodd">
        <g fill="#000" fill-rule="nonzero">
            <g>
                <g>
                    <path
                        d="M2.375 13.444c0-.675-.532-1.222-1.188-1.222-.655 0-1.187.547-1.187 1.222h2.375zm16.625 0c0-.675-.532-1.222-1.188-1.222-.655 0-1.187.547-1.187 1.222H19zM8.312 14.667c0 .675.532 1.222 1.188 1.222.656 0 1.188-.547 1.188-1.222H8.312zM9.5 1.222l.84-.864c-.464-.477-1.216-.477-1.68 0l.84.864zM2.723 6.47c-.464.477-.464 1.251 0 1.729.464.477 1.215.477 1.68 0l-1.68-1.729zm11.875 1.729c.464.477 1.215.477 1.68 0 .463-.478.463-1.252 0-1.729l-1.68 1.729zM0 13.444v3.667h2.375v-3.667H0zM4.75 22h9.5v-2.444h-9.5V22zM19 17.111v-3.667h-2.375v3.667H19zm-8.313-2.444V1.222H8.313v13.445h2.374zM8.66.358L2.723 6.469l1.68 1.729 5.937-6.112L8.66.358zm0 1.728l5.938 6.112 1.68-1.729L10.34.358 8.66 2.086zM14.25 22c2.623 0 4.75-2.189 4.75-4.889h-2.375c0 1.35-1.063 2.445-2.375 2.445V22zM0 17.111C0 19.811 2.127 22 4.75 22v-2.444c-1.312 0-2.375-1.095-2.375-2.445H0z"
                        transform="translate(-27 -610) translate(0 568) translate(27 42)" />
                </g>
            </g>
        </g>
    </g>
</svg>
