<svg height="24" viewBox="0 0 24 24" width="24" xmlns="http://www.w3.org/2000/svg">
    <g fill="none" fill-rule="evenodd">
        <g fill="#000" fill-rule="nonzero">
            <g>
                <g>
                    <path
                        d="M12 2C6.477 2 2 6.477 2 12s4.477 10 10 10 10-4.477 10-10c0-2.652-1.054-5.196-2.929-7.071C17.196 3.054 14.652 2 12 2zm8 10c.002 1.777-.593 3.502-1.69 4.9L7.1 5.69C8.498 4.593 10.223 3.998 12 4c4.418 0 8 3.582 8 8zM4 12c-.002-1.777.593-3.502 1.69-4.9L16.9 18.31c-1.398 1.097-3.123 1.692-4.9 1.69-4.418 0-8-3.582-8-8z"
                        transform="translate(-24 -664) translate(0 568) translate(24 96)" />
                </g>
            </g>
        </g>
    </g>
</svg>
