<svg id="Solo" xmlns="http://www.w3.org/2000/svg" width="235.765" height="326" viewBox="0 0 235.765 326">
  <g id="Group_82" data-name="Group 82" transform="translate(5.947 5.949)">
    <g id="XMLID_193_" transform="translate(0.001 177.275)">
      <g id="Group_79" data-name="Group 79" transform="translate(0 0)">
        <path id="Path_437" data-name="Path 437" d="M338.237,434.086v27.889a6.583,6.583,0,0,1-6.583,6.583h-210.7a6.583,6.583,0,0,1-6.583-6.583V434.086a64.693,64.693,0,0,1,25.017-51.1l57.26-44.49,5.647-5.352,46.838-1.407,6.83,6.759,57.26,44.49A64.693,64.693,0,0,1,338.237,434.086Z" transform="translate(-114.368 -331.733)" fill="#cdeff3"/>
      </g>
    </g>
    <path id="Path_438" data-name="Path 438" d="M264.363,345.021l-8.4-6.53-6.83-6.759-14.323.43-32.515.977-5.647,5.352-57.26,44.49a64.693,64.693,0,0,0-25.017,51.1v27.889a6.583,6.583,0,0,0,6.583,6.583h28.017V446.792a64.693,64.693,0,0,1,25.017-51.1l9.51-7.389a34.012,34.012,0,0,1,30.208-6.068,45.525,45.525,0,0,0,56.713-32.509Z" transform="translate(-114.367 -154.458)" fill="#23c8d2"/>
    <path id="Path_439" data-name="Path 439" d="M277.41,322.835a29.654,29.654,0,0,1-59.308,0v-66.8h59.309v66.8Z" transform="translate(-135.821 -138.802)" fill="#fbf2e2"/>
    <path id="Path_440" data-name="Path 440" d="M302.159,173.644V159.308a39.12,39.12,0,0,0-39.12-39.12H208.981l-5.141-9.834a3.944,3.944,0,0,0-5.694-1.448,43.221,43.221,0,0,0-19.132,35.885v28.852l13.357,36.89h95.395Z" transform="translate(-127.737 -108.236)" fill="#e5e9f2"/>
    <g id="Group_80" data-name="Group 80" transform="translate(51.278 0)">
      <path id="Path_441" data-name="Path 441" d="M210.018,178.425V149.572a43.207,43.207,0,0,1,11.545-29.384H208.982l-5.141-9.834a3.944,3.944,0,0,0-5.694-1.448,43.221,43.221,0,0,0-19.132,35.885v28.852l13.357,36.889h29.273Z" transform="translate(-179.015 -108.236)" fill="#c0ccda"/>
    </g>
    <g id="Group_81" data-name="Group 81" transform="translate(51.277 59.714)">
      <path id="Path_442" data-name="Path 442" d="M248.67,321.578a77.031,77.031,0,0,0,28.739-5.532v-60.01H218.1v66.8a29.664,29.664,0,0,0,40.1,27.756c-6.633-2.494-12.156-12.374-15.55-20.051a6.393,6.393,0,0,1,5.916-8.965Z" transform="translate(-187.098 -198.517)" fill="#f6dfb9"/>
      <path id="Path_443" data-name="Path 443" d="M179.014,189.213v36.4l8.969,1.869,3.918,28.9,44.329,27.327,18.613,2.062,14.245-2.056a61.551,61.551,0,0,0,33.071-54.575v-39.93a335.756,335.756,0,0,0-123.145,0Z" transform="translate(-179.014 -183.519)" fill="#fbf2e2"/>
      <path id="Path_444" data-name="Path 444" d="M210.018,222.668V185.262q-15.524,1.422-31,4.313V229.5a61.573,61.573,0,0,0,61.573,61.573,62.3,62.3,0,0,0,28.548-7C236.376,282.666,210.018,255.773,210.018,222.668Z" transform="translate(-179.014 -183.88)" fill="#f6dfb9"/>
    </g>
  </g>
  <g id="Group_83" data-name="Group 83" transform="translate(0 0)">
    <path id="Path_445" data-name="Path 445" d="M315.321,330.507l-54.966-42.7v-17.88a67.545,67.545,0,0,0,32.834-57.9V157.756a45.12,45.12,0,0,0-45.069-45.069H197.664l-3.472-6.641a9.893,9.893,0,0,0-14.281-3.631,49.091,49.091,0,0,0-21.765,40.825v68.783a67.537,67.537,0,0,0,3.013,20,5.949,5.949,0,1,0,11.366-3.519,55.643,55.643,0,0,1-2.481-16.478V177.069a331.19,331.19,0,0,1,111.248.018v34.934a55.608,55.608,0,0,1-97.6,36.472,5.949,5.949,0,0,0-8.977,7.808,67.682,67.682,0,0,0,14.435,12.492v19.012l-54.966,42.7a70.2,70.2,0,0,0-27.313,55.8v34.474a5.949,5.949,0,1,0,11.9,0V386.311A58.385,58.385,0,0,1,141.482,339.9l49.36-38.346a35.6,35.6,0,0,0,67.821,0l49.36,38.346a58.385,58.385,0,0,1,22.715,46.409v34.474a5.949,5.949,0,1,0,11.9,0V386.311A70.21,70.21,0,0,0,315.321,330.507Zm-145.279-165.5V143.24a37.2,37.2,0,0,1,14.673-29.64l4.073,7.792a5.948,5.948,0,0,0,5.272,3.193h54.059a33.208,33.208,0,0,1,33.171,33.171v7.276a342.978,342.978,0,0,0-111.248-.024Zm54.709,149.415a23.732,23.732,0,0,1-23.705-23.705v-15.83a67.426,67.426,0,0,0,47.411.689v15.141A23.733,23.733,0,0,1,224.752,314.424Z" transform="translate(-106.87 -100.736)" fill="#001738"/>
    <path id="Path_446" data-name="Path 446" d="M169.306,458.054A5.949,5.949,0,0,0,163.357,464v30.682a5.949,5.949,0,1,0,11.9,0V464A5.948,5.948,0,0,0,169.306,458.054Z" transform="translate(-118.552 -174.634)" fill="#001738"/>
    <path id="Path_447" data-name="Path 447" d="M338.567,458.054A5.949,5.949,0,0,0,332.618,464v30.682a5.949,5.949,0,1,0,11.9,0V464A5.949,5.949,0,0,0,338.567,458.054Z" transform="translate(-153.558 -174.634)" fill="#001738"/>
  </g>
</svg>
