<svg height="13" viewBox="0 0 13 13" width="13" xmlns="http://www.w3.org/2000/svg">
    <g fill="none" fill-rule="evenodd">
        <g fill="#FFAD3F" fill-rule="nonzero">
            <g>
                <g>
                    <path
                        d="M10.112 14.997c-.104 0-.207-.026-.3-.076L6.49 13.095l-3.322 1.826c-.22.122-.487.101-.687-.053-.201-.154-.3-.414-.257-.672l.651-3.85L.191 7.611c-.17-.18-.233-.442-.163-.684.077-.248.282-.429.528-.465l3.713-.568 1.635-3.508C6.013 2.15 6.241 2 6.49 2c.25 0 .478.15.586.386l1.655 3.501 3.713.568c.246.037.45.217.528.465.07.242.007.505-.163.684l-2.684 2.735.651 3.85c.048.262-.054.53-.26.685-.118.086-.26.13-.404.123z"
                        transform="translate(-321 -126) translate(16 114) translate(305 10)" />
                </g>
            </g>
        </g>
    </g>
</svg>
