<svg height="48" viewBox="0 0 48 48" width="48" xmlns="http://www.w3.org/2000/svg">
    <g fill="none" fill-rule="evenodd">
        <g>
            <g>
                <g>
                    <g transform="translate(-164 -610) translate(87 562) translate(13 48) translate(64)">
                        <circle cx="24" cy="24" fill="#31A6FF" r="24" />
                        <g>
                            <path d="M0 0H32V32H0z" transform="translate(8 8)" />
                            <path
                                d="M25.296 8.901l1.502-.661c.33-.146.702.096.702.457 0 .57-.23 1.685-.902 3.392-.15 2.863-1.501 7.113-3.914 10.044-3.7 4.492-9.375 5.692-17.197 2.424-.502-.21-.355-.958.19-.962 1.976-.013 3.885-.477 5.615-1.339-1.702-.426-3.049-1.686-3.681-3.442-.01-.026-.017-.053-.022-.08l-.194-.113c-1.729-1.059-2.872-3.118-2.789-5.412l.353-.19c-.861-1.74-.525-3.934.743-5.016.178-.151.437-.16.624-.02 2.852 2.123 4.759 3.07 8.201 3.977.456-5.287 6.558-7.484 10.77-3.059z"
                                fill="#FFF" fill-rule="nonzero" transform="translate(8 8)" />
                        </g>
                    </g>
                </g>
            </g>
        </g>
    </g>
</svg>
