<svg xmlns="http://www.w3.org/2000/svg" width="54.083" height="39.333" viewBox="0 0 54.083 39.333">
  <g id="Video" transform="translate(-2.458 -9.833)">
    <path id="Path_131" data-name="Path 131" d="M37.875,4a2.458,2.458,0,0,1,2.458,2.458V16.783L53.149,7.81a1.229,1.229,0,0,1,1.935,1.008v29.7a1.229,1.229,0,0,1-1.935,1.008L40.333,30.55V40.875a2.458,2.458,0,0,1-2.458,2.458H3.458A2.458,2.458,0,0,1,1,40.875V6.458A2.458,2.458,0,0,1,3.458,4ZM35.417,8.917H5.917v29.5h29.5ZM16.733,15.871a.983.983,0,0,1,.529.152l10.706,6.815a.983.983,0,0,1,0,1.657L17.262,31.312a.983.983,0,0,1-1.512-.836V16.857a.985.985,0,0,1,.983-.983Zm33.433.027-9.833,6.883v1.765l9.833,6.883Z" transform="translate(1.458 5.833)" fill="#fff"/>
  </g>
</svg>
