<svg height="14" viewBox="0 0 24 14" width="24" xmlns="http://www.w3.org/2000/svg">
    <g fill="none" fill-rule="evenodd" stroke-linecap="round" stroke-linejoin="round">
        <g stroke="#000" stroke-width="2">
            <g>
                <g>
                    <g>
                        <path
                            d="M14 5.996C14 7.655 12.657 9 11 9S8 7.655 8 5.996c0-.425.09-.844.267-1.23.582-1.288 1.981-1.995 3.361-1.7 1.38.297 2.368 1.516 2.372 2.93h0z"
                            transform="translate(-24 -616) translate(0 568) translate(24 49) translate(1)" />
                        <path d="M0 6c6.076 8 15.924 8 22 0C15.924-2 6.076-2 0 6z"
                            transform="translate(-24 -616) translate(0 568) translate(24 49) translate(1)" />
                    </g>
                </g>
            </g>
        </g>
    </g>
</svg>
