<svg xmlns="http://www.w3.org/2000/svg" width="228.151" height="247.515" viewBox="0 0 228.151 247.515">
  <g id="Private" transform="translate(-472.574 -966)">
    <g id="chat-group" transform="translate(407.695 865.264)">
      <g id="Group_82" data-name="Group 82" transform="translate(5.822 105.253)">
        <g id="XMLID_193_" transform="translate(63.573 134.596)">
          <g id="Group_79" data-name="Group 79" transform="translate(0 0)">
            <path id="Path_437" data-name="Path 437" d="M284.34,409.445V430.62a5,5,0,0,1-5,5H119.366a5,5,0,0,1-5-5V409.445a49.118,49.118,0,0,1,18.994-38.8l43.475-33.779,4.287-4.063,35.561-1.068,5.186,5.132,43.475,33.779A49.118,49.118,0,0,1,284.34,409.445Z" transform="translate(-114.368 -331.733)" fill="#cdeff3"/>
          </g>
        </g>
        <path id="Path_438" data-name="Path 438" d="M228.251,341.822l-6.381-4.958-5.186-5.132-10.874.326-24.687.742-4.287,4.063-43.475,33.779a49.118,49.118,0,0,0-18.994,38.8v21.175a5,5,0,0,0,5,5h21.272V419.091a49.118,49.118,0,0,1,18.994-38.8l7.22-5.61a25.824,25.824,0,0,1,22.936-4.607,34.565,34.565,0,0,0,43.059-24.682Z" transform="translate(-50.795 -197.137)" fill="#23c8d2"/>
        <path id="Path_439" data-name="Path 439" d="M263.132,306.752a22.515,22.515,0,0,1-45.03,0V256.033h45.03v50.719Z" transform="translate(-92.058 -167.026)" fill="#fbf2e2"/>
        <path id="Path_440" data-name="Path 440" d="M272.512,157.9V147.012a29.7,29.7,0,0,0-29.7-29.7H201.766l-3.9-7.466a3,3,0,0,0-4.323-1.1,32.815,32.815,0,0,0-14.526,27.246V157.9L189.155,185.9h72.428Z" transform="translate(-76.51 -108.236)" fill="#e5e9f2"/>
        <g id="Group_80" data-name="Group 80" transform="translate(102.505 0)">
          <path id="Path_441" data-name="Path 441" d="M202.554,161.527V139.62a32.805,32.805,0,0,1,8.765-22.31h-9.553l-3.9-7.466a3,3,0,0,0-4.323-1.1,32.815,32.815,0,0,0-14.526,27.246V157.9L189.156,185.9h22.225Z" transform="translate(-179.015 -108.236)" fill="#c0ccda"/>
        </g>
        <g id="Group_81" data-name="Group 81" transform="translate(102.504 45.338)">
          <path id="Path_442" data-name="Path 442" d="M241.31,305.8a58.485,58.485,0,0,0,21.82-4.2V256.035H218.1v50.719a22.522,22.522,0,0,0,30.449,21.074c-5.036-1.893-9.23-9.395-11.807-15.224a4.854,4.854,0,0,1,4.492-6.806Z" transform="translate(-194.561 -212.364)" fill="#f6dfb9"/>
          <path id="Path_443" data-name="Path 443" d="M179.014,187.842v27.64l6.81,1.419,2.975,21.941,33.657,20.748,14.132,1.566L247.4,259.6a46.733,46.733,0,0,0,25.109-41.436V187.842a254.922,254.922,0,0,0-93.5,0Z" transform="translate(-179.014 -183.519)" fill="#fbf2e2"/>
          <path id="Path_444" data-name="Path 444" d="M202.554,213.662v-28.4q-11.787,1.08-23.539,3.274v30.317A46.749,46.749,0,0,0,225.764,265.6a47.3,47.3,0,0,0,21.675-5.318A46.827,46.827,0,0,1,202.554,213.662Z" transform="translate(-179.014 -184.212)" fill="#f6dfb9"/>
        </g>
      </g>
      <g id="Group_83" data-name="Group 83" transform="translate(1.306 100.736)">
        <path id="Path_445" data-name="Path 445" d="M265.136,275.189,223.4,242.769V229.193a51.283,51.283,0,0,0,24.929-43.963v-41.2a34.257,34.257,0,0,0-34.218-34.218H175.8l-2.636-5.042a7.511,7.511,0,0,0-10.843-2.757,37.272,37.272,0,0,0-16.525,31V185.23a51.277,51.277,0,0,0,2.288,15.183,4.517,4.517,0,1,0,8.629-2.672,42.246,42.246,0,0,1-1.884-12.511V158.692a251.455,251.455,0,0,1,84.465.014V185.23a42.22,42.22,0,0,1-74.1,27.691,4.517,4.517,0,0,0-6.816,5.928,51.389,51.389,0,0,0,10.96,9.484v14.435l-41.733,32.421a53.3,53.3,0,0,0-20.738,42.37v26.175a4.517,4.517,0,1,0,9.033,0V317.558a44.329,44.329,0,0,1,17.246-35.236l37.477-29.114a27.029,27.029,0,0,0,51.493,0L259.6,282.323a44.329,44.329,0,0,1,17.246,35.236v26.175a4.517,4.517,0,1,0,9.033,0V317.558A53.307,53.307,0,0,0,265.136,275.189Zm-110.3-125.654V133.007a28.246,28.246,0,0,1,11.141-22.5l3.092,5.916a4.516,4.516,0,0,0,4,2.424h41.044A25.213,25.213,0,0,1,239.3,144.029v5.524a260.406,260.406,0,0,0-84.465-.018Zm41.538,113.443a18.019,18.019,0,0,1-18-18V232.961a51.194,51.194,0,0,0,36,.523v11.5A18.02,18.02,0,0,1,196.372,262.978Z" transform="translate(-43.297 -100.736)" fill="#001738"/>
        <path id="Path_446" data-name="Path 446" d="M167.874,458.054a4.517,4.517,0,0,0-4.517,4.517v23.3a4.517,4.517,0,1,0,9.033,0v-23.3A4.516,4.516,0,0,0,167.874,458.054Z" transform="translate(-65.766 -242.868)" fill="#001738"/>
        <path id="Path_447" data-name="Path 447" d="M337.135,458.054a4.517,4.517,0,0,0-4.517,4.517v23.3a4.517,4.517,0,0,0,9.033,0v-23.3A4.517,4.517,0,0,0,337.135,458.054Z" transform="translate(-133.093 -242.868)" fill="#001738"/>
      </g>
    </g>
    <g id="private-account" transform="translate(316.687 722.729)">
      <g id="Group_88" data-name="Group 88" transform="translate(323.696 332.224)">
        <path id="Path_480" data-name="Path 480" d="M385.519,396.053v33.372a6.319,6.319,0,0,1-6.32,6.32H334.507a6.322,6.322,0,0,1-6.32-6.32V396.053a6.319,6.319,0,0,1,6.32-6.32H379.2a6.317,6.317,0,0,1,6.32,6.32Z" transform="translate(-328.187 -389.733)" fill="#daeae2"/>
        <path id="Path_481" data-name="Path 481" d="M449.737,396.053v33.372a6.319,6.319,0,0,1-6.32,6.32H435.4a6.319,6.319,0,0,0,6.32-6.32V396.053a6.317,6.317,0,0,0-6.32-6.32h8.02A6.317,6.317,0,0,1,449.737,396.053Z" transform="translate(-392.405 -389.733)" fill="#65b17c"/>
      </g>
      <g id="Group_89" data-name="Group 89" transform="translate(320.69 293.723)">
        <path id="Path_485" data-name="Path 485" d="M381.031,346.386a3.007,3.007,0,0,0,3.008-3.008v-4.835a9.339,9.339,0,0,0-9.328-9.328h-3.7V312.37a18.647,18.647,0,0,0-37.294,0v16.846h-3.7a9.339,9.339,0,0,0-9.328,9.328v33.372a9.339,9.339,0,0,0,9.328,9.328H374.71a9.339,9.339,0,0,0,9.328-9.328V357.428a3.008,3.008,0,0,0-6.015,0v14.488a3.317,3.317,0,0,1-3.313,3.313H330.018a3.317,3.317,0,0,1-3.313-3.313V338.544a3.317,3.317,0,0,1,3.313-3.313H374.71a3.317,3.317,0,0,1,3.313,3.313v4.835A3.007,3.007,0,0,0,381.031,346.386Zm-41.3-17.17V312.37a12.632,12.632,0,1,1,25.264,0v16.846Z" transform="translate(-320.69 -293.723)" fill="#001738"/>
        <path id="Path_487" data-name="Path 487" d="M392.176,426.292V439.38a3.008,3.008,0,0,0,6.015,0V426.292a3.008,3.008,0,1,0-6.015,0Z" transform="translate(-363.509 -371.329)" fill="#001738"/>
      </g>
    </g>
  </g>
</svg>
