<svg xmlns="http://www.w3.org/2000/svg" width="307.54" height="247.515" viewBox="0 0 307.54 247.515">
  <g id="Public" transform="translate(-1.306 -100.736)">
    <g id="Group_82" data-name="Group 82" transform="translate(5.822 105.253)">
      <path id="Path_427" data-name="Path 427" d="M74.641,306.966l.036-18.957a24.116,24.116,0,0,0,9.044-18.844V256.841a24.166,24.166,0,1,0-48.332,0v12.324a24.114,24.114,0,0,0,9.08,18.872v18.929L10.46,336.255a4.761,4.761,0,0,0-1.654,3.607v15.7a4.271,4.271,0,0,0,3.515,4.2,266.8,266.8,0,0,0,42.267,4.16l56.722-2.417V337.677Z" transform="translate(-8.805 -157.734)" fill="#daeae2"/>
      <path id="Path_428" data-name="Path 428" d="M24.989,358.289v-15.7a4.76,4.76,0,0,1,1.654-3.607l30.624-26.374a9.743,9.743,0,0,0,3.385-7.382v-10.1a9.9,9.9,0,0,0-2.594-6.765A24.067,24.067,0,0,1,51.571,271.9V259.571A24.167,24.167,0,0,1,71.426,235.8a24.163,24.163,0,0,0-36.038,21.047v12.324a24.114,24.114,0,0,0,9.08,18.872v18.929L10.459,336.257a4.761,4.761,0,0,0-1.654,3.607v16.385a3.515,3.515,0,0,0,3.515,3.515q7.38,1.328,14.811,2.226a4.271,4.271,0,0,1-2.142-3.7Z" transform="translate(-8.805 -157.735)" fill="#65b17c"/>
      <path id="Path_435" data-name="Path 435" d="M432.928,329.088l-31.989-26.827.036-18.957a24.116,24.116,0,0,0,9.044-18.844V252.136a24.166,24.166,0,0,0-48.332,0V264.46a24.114,24.114,0,0,0,9.08,18.872v18.929L336.758,331.55a4.761,4.761,0,0,0-1.654,3.607v16.385a3.515,3.515,0,0,0,3.515,3.515,266.8,266.8,0,0,0,42.267,4.16l48.554-2.069a8.53,8.53,0,0,0,8.167-8.523v-9.57A12.951,12.951,0,0,0,432.928,329.088Z" transform="translate(-138.598 -155.863)" fill="#f0d5b3"/>
      <path id="Path_436" data-name="Path 436" d="M354.934,356.925a3.515,3.515,0,0,1-3.515-3.515V337.026a4.762,4.762,0,0,1,1.654-3.608l30.172-25.985a11.043,11.043,0,0,0,3.836-8.367v-9.151a10.987,10.987,0,0,0-2.833-7.379A24.061,24.061,0,0,1,378,266.329V254a24.18,24.18,0,0,1,18.6-23.515,24.176,24.176,0,0,0-34.92,21.648v12.324a24.114,24.114,0,0,0,9.08,18.872v18.929l-34.008,29.289a4.761,4.761,0,0,0-1.654,3.607v16.385a3.515,3.515,0,0,0,3.515,3.515q12.446,2.239,25.024,3.273c-2.907-.425-5.811-.885-8.708-1.406Z" transform="translate(-138.598 -155.863)" fill="#dfa357"/>
      <g id="XMLID_193_" transform="translate(63.573 134.596)">
        <g id="Group_79" data-name="Group 79" transform="translate(0 0)">
          <path id="Path_437" data-name="Path 437" d="M284.34,409.445V430.62a5,5,0,0,1-5,5H119.366a5,5,0,0,1-5-5V409.445a49.118,49.118,0,0,1,18.994-38.8l43.475-33.779,4.287-4.063,35.561-1.068,5.186,5.132,43.475,33.779A49.118,49.118,0,0,1,284.34,409.445Z" transform="translate(-114.368 -331.733)" fill="#cdeff3"/>
        </g>
      </g>
      <path id="Path_438" data-name="Path 438" d="M228.251,341.822l-6.381-4.958-5.186-5.132-10.874.326-24.687.742-4.287,4.063-43.475,33.779a49.118,49.118,0,0,0-18.994,38.8v21.175a5,5,0,0,0,5,5h21.272V419.091a49.118,49.118,0,0,1,18.994-38.8l7.22-5.61a25.824,25.824,0,0,1,22.936-4.607,34.565,34.565,0,0,0,43.059-24.682Z" transform="translate(-50.795 -197.137)" fill="#23c8d2"/>
      <path id="Path_439" data-name="Path 439" d="M263.132,306.752a22.515,22.515,0,0,1-45.03,0V256.033h45.03v50.719Z" transform="translate(-92.058 -167.026)" fill="#fbf2e2"/>
      <path id="Path_440" data-name="Path 440" d="M272.512,157.9V147.012a29.7,29.7,0,0,0-29.7-29.7H201.766l-3.9-7.466a3,3,0,0,0-4.323-1.1,32.815,32.815,0,0,0-14.526,27.246V157.9L189.155,185.9h72.428Z" transform="translate(-76.51 -108.236)" fill="#e5e9f2"/>
      <g id="Group_80" data-name="Group 80" transform="translate(102.505 0)">
        <path id="Path_441" data-name="Path 441" d="M202.554,161.527V139.62a32.805,32.805,0,0,1,8.765-22.31h-9.553l-3.9-7.466a3,3,0,0,0-4.323-1.1,32.815,32.815,0,0,0-14.526,27.246V157.9L189.156,185.9h22.225Z" transform="translate(-179.015 -108.236)" fill="#c0ccda"/>
      </g>
      <g id="Group_81" data-name="Group 81" transform="translate(102.504 45.338)">
        <path id="Path_442" data-name="Path 442" d="M241.31,305.8a58.485,58.485,0,0,0,21.82-4.2V256.035H218.1v50.719a22.522,22.522,0,0,0,30.449,21.074c-5.036-1.893-9.23-9.395-11.807-15.224a4.854,4.854,0,0,1,4.492-6.806Z" transform="translate(-194.561 -212.364)" fill="#f6dfb9"/>
        <path id="Path_443" data-name="Path 443" d="M179.014,187.842v27.64l6.81,1.419,2.975,21.941,33.657,20.748,14.132,1.566L247.4,259.6a46.733,46.733,0,0,0,25.109-41.436V187.842a254.922,254.922,0,0,0-93.5,0Z" transform="translate(-179.014 -183.519)" fill="#fbf2e2"/>
        <path id="Path_444" data-name="Path 444" d="M202.554,213.662v-28.4q-11.787,1.08-23.539,3.274v30.317A46.749,46.749,0,0,0,225.764,265.6a47.3,47.3,0,0,0,21.675-5.318A46.827,46.827,0,0,1,202.554,213.662Z" transform="translate(-179.014 -184.212)" fill="#f6dfb9"/>
      </g>
    </g>
    <g id="Group_83" data-name="Group 83" transform="translate(1.306 100.736)">
      <path id="Path_445" data-name="Path 445" d="M265.136,275.189,223.4,242.769V229.193a51.283,51.283,0,0,0,24.929-43.963v-41.2a34.257,34.257,0,0,0-34.218-34.218H175.8l-2.636-5.042a7.511,7.511,0,0,0-10.843-2.757,37.272,37.272,0,0,0-16.525,31V185.23a51.277,51.277,0,0,0,2.288,15.183,4.517,4.517,0,1,0,8.629-2.672,42.246,42.246,0,0,1-1.884-12.511V158.692a251.455,251.455,0,0,1,84.465.014V185.23a42.22,42.22,0,0,1-74.1,27.691,4.517,4.517,0,0,0-6.816,5.928,51.389,51.389,0,0,0,10.96,9.484v14.435l-41.733,32.421a53.3,53.3,0,0,0-20.738,42.37v26.175a4.517,4.517,0,1,0,9.033,0V317.558a44.329,44.329,0,0,1,17.246-35.236l37.477-29.114a27.029,27.029,0,0,0,51.493,0L259.6,282.323a44.329,44.329,0,0,1,17.246,35.236v26.175a4.517,4.517,0,1,0,9.033,0V317.558A53.307,53.307,0,0,0,265.136,275.189Zm-110.3-125.654V133.007a28.246,28.246,0,0,1,11.141-22.5l3.092,5.916a4.516,4.516,0,0,0,4,2.424h41.044A25.213,25.213,0,0,1,239.3,144.029v5.524a260.406,260.406,0,0,0-84.465-.018Zm41.538,113.443a18.019,18.019,0,0,1-18-18V232.961a51.194,51.194,0,0,0,36,.523v11.5A18.02,18.02,0,0,1,196.372,262.978Z" transform="translate(-43.297 -100.736)" fill="#001738"/>
      <path id="Path_446" data-name="Path 446" d="M167.874,458.054a4.517,4.517,0,0,0-4.517,4.517v23.3a4.517,4.517,0,1,0,9.033,0v-23.3A4.516,4.516,0,0,0,167.874,458.054Z" transform="translate(-65.766 -242.868)" fill="#001738"/>
      <path id="Path_447" data-name="Path 447" d="M337.135,458.054a4.517,4.517,0,0,0-4.517,4.517v23.3a4.517,4.517,0,0,0,9.033,0v-23.3A4.517,4.517,0,0,0,337.135,458.054Z" transform="translate(-133.093 -242.868)" fill="#001738"/>
      <path id="Path_448" data-name="Path 448" d="M10.424,336.7l34.008-29.289A4.516,4.516,0,0,0,46,303.984V292.839a28.575,28.575,0,0,0,21.138,0v11.145a4.516,4.516,0,0,0,1.569,3.422l8.785,7.566a4.517,4.517,0,1,0,5.9-6.845l-7.216-6.214v-14.82a28.6,28.6,0,0,0,9.08-20.91V253.859a28.683,28.683,0,0,0-57.365,0v12.324a28.6,28.6,0,0,0,9.08,20.911v14.819L4.529,329.85a9.271,9.271,0,0,0-3.223,7.03v15.7a8.78,8.78,0,0,0,7.232,8.649,272.04,272.04,0,0,0,42.983,4.23h.086a4.516,4.516,0,0,0,.083-9.032A263.1,263.1,0,0,1,10.34,352.37V336.88a.244.244,0,0,1,.084-.184Zm26.5-82.836a19.649,19.649,0,0,1,39.3,0v12.324a19.649,19.649,0,1,1-39.3,0Z" transform="translate(-1.306 -150.236)" fill="#001738"/>
      <path id="Path_449" data-name="Path 449" d="M411.831,303.984a4.518,4.518,0,0,0,1.569,3.422l7.476,6.438a4.517,4.517,0,1,0,5.9-6.845l-5.907-5.087v-14.82a28.6,28.6,0,0,0,9.08-20.91V253.859a28.682,28.682,0,0,0-57.365,0v12.324a28.6,28.6,0,0,0,9.08,20.91v14.819l-7.216,6.214a4.517,4.517,0,0,0,5.9,6.845l8.785-7.566a4.516,4.516,0,0,0,1.569-3.422V292.839a28.574,28.574,0,0,0,21.138,0v11.145Zm-10.569-18.152a19.671,19.671,0,0,1-19.649-19.649V253.859a19.649,19.649,0,0,1,39.3,0v12.324A19.672,19.672,0,0,1,401.262,285.833Z" transform="translate(-148.989 -150.236)" fill="#001738"/>
      <path id="Path_450" data-name="Path 450" d="M472.548,391.622l-11.678-10.058a4.517,4.517,0,1,0-5.9,6.845l11.679,10.058a.245.245,0,0,1,.085.185v15.49a263.1,263.1,0,0,1-41.349,4.053,4.516,4.516,0,0,0,.083,9.032h.086A272.1,272.1,0,0,0,468.54,423a8.78,8.78,0,0,0,7.232-8.649v-15.7a9.276,9.276,0,0,0-3.224-7.032Z" transform="translate(-168.232 -212.007)" fill="#001738"/>
    </g>
  </g>
</svg>
