<svg xmlns="http://www.w3.org/2000/svg" width="109.987" height="115.233" viewBox="0 0 109.987 115.233">
  <g id="swipe" transform="translate(-10.684 -0.002)">
    <g id="Group_4" data-name="Group 4" transform="translate(10.684 0.002)">
      <g id="Group_3" data-name="Group 3">
        <path id="Path_6" data-name="Path 6" d="M19.626,20.957H42.111a21.046,21.046,0,0,0,1.65,8.16,21.58,21.58,0,0,0,1.928,3.556,2.618,2.618,0,1,0,4.342-2.928,15.778,15.778,0,0,1-2.362-11.958,15.665,15.665,0,0,1,4.274-7.94,16.405,16.405,0,0,1,2.336-1.922,15.991,15.991,0,0,1,2.666-1.451,15.478,15.478,0,0,1,2.949-.911,15.765,15.765,0,0,1,9.281.911,15.616,15.616,0,0,1,2.671,1.446,15.775,15.775,0,0,1,2.326,1.917,15.854,15.854,0,0,1,3.373,5,15.478,15.478,0,0,1,.911,2.949,15.9,15.9,0,0,1,0,6.343,15.817,15.817,0,0,1-.911,2.943,15.291,15.291,0,0,1-1.451,2.671,2.618,2.618,0,0,0,4.342,2.928,20.871,20.871,0,0,0,3.153-7.49,21.025,21.025,0,0,0,.424-4.222H106.5l-6,6a2.621,2.621,0,0,0,0,3.7,2.593,2.593,0,0,0,1.849.77,2.63,2.63,0,0,0,1.854-.765l10.47-10.47a2.712,2.712,0,0,0,.571-.854,2.6,2.6,0,0,0,0-2,2.5,2.5,0,0,0-.571-.854L104.2,6.02a2.618,2.618,0,0,0-3.7,3.7l6,6H83.268a21.372,21.372,0,0,0-.906-2.923A21.077,21.077,0,0,0,80.43,9.236a21.046,21.046,0,0,0-5.651-5.657A20.871,20.871,0,0,0,67.288.426a21.215,21.215,0,0,0-8.443,0,20.743,20.743,0,0,0-3.939,1.22A21.886,21.886,0,0,0,51.345,3.59a21.046,21.046,0,0,0-5.657,5.651A21.824,21.824,0,0,0,43.755,12.8a20.415,20.415,0,0,0-.9,2.917H19.626l6-6a2.618,2.618,0,0,0-3.7-3.7L11.455,16.484a2.712,2.712,0,0,0-.571.854,2.6,2.6,0,0,0,0,2,2.5,2.5,0,0,0,.571.854l10.47,10.47a2.62,2.62,0,1,0,3.708-3.7Z" transform="translate(-10.684 -0.002)" fill="#c0ccda"/>
        <path id="Path_7" data-name="Path 7" d="M193.254,90a10.684,10.684,0,0,0-7.867,1.074v-1.4a10.482,10.482,0,0,0-15.713-9.024v-1.4a10.468,10.468,0,0,0-15.713-9.066V53.111a10.475,10.475,0,0,0-20.951,0v32.62a10.245,10.245,0,0,0-5.028-1.3,10.117,10.117,0,0,0-7.93,3.389c-2.289,2.65-3.221,6.673-2.572,11.041,2.792,18.3,9.449,33.72,19.777,45.829a7.9,7.9,0,0,0,6.034,2.75H184.3a7.805,7.805,0,0,0,7.233-4.735c5.934-14.089,9.417-29.341,9.559-41.828A10.806,10.806,0,0,0,193.254,90Zm-6.547,50.669A2.576,2.576,0,0,1,184.3,142.2H143.287a2.692,2.692,0,0,1-2.043-.906c-9.695-11.36-15.949-25.9-18.588-43.216-.419-2.807.089-5.363,1.356-6.84a4.9,4.9,0,0,1,3.96-1.571A5.082,5.082,0,0,1,133,94.907a2.619,2.619,0,1,0,5.238,0v-41.8a5.243,5.243,0,0,1,10.486,0V79.247a2.619,2.619,0,1,0,5.238,0,5.238,5.238,0,0,1,10.475,0V89.669a2.619,2.619,0,0,0,5.238,0,5.238,5.238,0,0,1,10.475,0v10.423a2.619,2.619,0,0,0,5.238,0,5.362,5.362,0,0,1,6.584-5.018,5.685,5.685,0,0,1,3.886,5.74C195.726,112.48,192.305,127.381,186.706,140.668Z" transform="translate(-91.108 -32.208)" fill="#c0ccda"/>
      </g>
    </g>
  </g>
</svg>
